<?xml version="1.0" encoding="utf-8"?>
<!-- Generator: Adobe Illustrator 16.0.0, SVG Export Plug-In . SVG Version: 6.00 Build 0)  -->
<!DOCTYPE svg PUBLIC "-//W3C//DTD SVG 1.1//EN" "http://www.w3.org/Graphics/SVG/1.1/DTD/svg11.dtd">
<svg version="1.1" id="Layer_1" xmlns="http://www.w3.org/2000/svg" xmlns:xlink="http://www.w3.org/1999/xlink" x="0px" y="0px"
	 width="262.42px" height="150px" viewBox="0 0 262.42 150" enable-background="new 0 0 262.42 150" xml:space="preserve">
<g id="XMLID_34_">
	<g id="XMLID_42_">
		<path id="XMLID_62_" fill="#F0B88A" d="M31.824,91.288c0.168,0.16,0.432,0.161,0.596-0.003l3.615-3.619
			c0.168-0.168,0.168-0.445-0.003-0.61c-8.58-8.252-22.364-7.907-30.511,1.032c-7.362,8.078-7.362,20.616-0.001,28.695
			c8.146,8.941,21.932,9.285,30.512,1.033c0.172-0.165,0.172-0.441,0.003-0.61l-3.616-3.618c-0.164-0.165-0.427-0.164-0.596-0.004
			c-6.153,5.837-15.955,5.596-21.806-0.725c-5.407-5.84-5.407-15.008,0.001-20.848C15.871,85.692,25.671,85.452,31.824,91.288z"/>
		<path id="XMLID_59_" fill="#F0B88A" d="M119.27,81.114c-11.765,0-21.302,9.546-21.302,21.322c0,11.775,9.537,21.321,21.302,21.321
			c11.765,0,21.302-9.546,21.302-21.321C140.571,90.66,131.034,81.114,119.27,81.114z M119.27,117.788
			c-8.471,0-15.338-6.873-15.338-15.352s6.867-15.352,15.338-15.352s15.338,6.873,15.338,15.352S127.74,117.788,119.27,117.788z"/>
		<path id="XMLID_58_" fill="#F0B88A" d="M65.162,117.788h-16.19c-0.235,0-0.426-0.191-0.426-0.427v-35.82
			c0-0.235-0.191-0.427-0.426-0.427h-5.112c-0.235,0-0.426,0.191-0.426,0.427v41.79c0,0.236,0.191,0.427,0.426,0.427h22.154
			c0.235,0,0.426-0.19,0.426-0.427v-5.117C65.588,117.979,65.397,117.788,65.162,117.788z"/>
		<path id="XMLID_57_" fill="#F0B88A" d="M94.559,123.331v-5.117c0-0.235-0.19-0.426-0.426-0.426h-16.19
			c-0.235,0-0.426-0.191-0.426-0.427v-12.793c0-0.235,0.191-0.427,0.426-0.427h14.486c0.235,0,0.426-0.19,0.426-0.426v-5.117
			c0-0.235-0.191-0.427-0.426-0.427H77.943c-0.235,0-0.426-0.19-0.426-0.427V87.511c0-0.235,0.191-0.426,0.426-0.426h16.19
			c0.235,0,0.426-0.191,0.426-0.427v-5.117c0-0.235-0.19-0.427-0.426-0.427H77.517h-5.538c-0.235,0-0.426,0.191-0.426,0.427v5.544
			v11.087v5.97v19.189c0,0.235,0.191,0.427,0.426,0.427h22.154C94.368,123.758,94.559,123.566,94.559,123.331z"/>
		<path id="XMLID_56_" fill="#F0B88A" d="M148.316,123.758h20.45c0.234,0,0.426-0.19,0.426-0.427v-1.705
			c0-0.235-0.191-0.427-0.426-0.427h-17.895c-0.235,0-0.426-0.191-0.426-0.427V81.541c0-0.235-0.19-0.427-0.426-0.427h-1.704
			c-0.235,0-0.427,0.191-0.427,0.427v41.79C147.89,123.567,148.081,123.758,148.316,123.758z"/>
		<path id="XMLID_53_" fill="#F0B88A" d="M193.713,81.374c-0.067-0.157-0.222-0.26-0.392-0.26h-0.541
			c-0.17,0-0.324,0.103-0.392,0.26l-17.83,41.79c-0.12,0.281,0.086,0.594,0.392,0.594h1.929c0.171,0,0.326-0.103,0.393-0.262
			l5.871-13.976c0.066-0.158,0.221-0.262,0.393-0.262h19.031c0.172,0,0.326,0.104,0.393,0.262l5.871,13.976
			c0.066,0.159,0.222,0.262,0.393,0.262h1.929c0.306,0,0.512-0.312,0.392-0.594L193.713,81.374z M184.326,106.7l8.725-20.77
			l8.724,20.77H184.326z"/>
		<path id="XMLID_52_" fill="#F0B88A" d="M257.733,81.541c0-0.235-0.19-0.427-0.426-0.427h-0.646c-0.169,0-0.322,0.1-0.391,0.255
			l-16.679,37.773l-16.679-37.773c-0.067-0.155-0.221-0.255-0.39-0.255h-0.574c-0.235,0-0.426,0.191-0.426,0.427l-4.614,41.79
			c0,0.236,0.19,0.427,0.426,0.427h1.704c0.235,0,0.427-0.19,0.427-0.427l3.762-35.82l15.701,35.993
			c0.068,0.154,0.221,0.254,0.389,0.254h0.549c0.169,0,0.321-0.1,0.39-0.254l15.773-35.993l3.834,35.82
			c0,0.236,0.19,0.427,0.426,0.427h1.705c0.234,0,0.426-0.19,0.426-0.427L257.733,81.541z"/>
		<path id="XMLID_51_" fill="#F0B88A" d="M92.671,145.211c0,1.095-0.118,1.861-0.35,2.302c-0.223,0.438-0.624,0.659-1.203,0.659
			c-0.413,0-0.854-0.159-1.328-0.478l-0.951,1.668c0.706,0.425,1.467,0.638,2.278,0.638c1.073,0,1.936-0.382,2.587-1.145
			c0.334-0.385,0.571-0.854,0.71-1.411c0.139-0.489,0.209-1.232,0.209-2.228v-8.338h-1.953V145.211z"/>
		<polygon id="XMLID_50_" fill="#F0B88A" points="99.768,149.766 106.878,149.766 106.878,147.937 101.712,147.937 101.712,143.631 
			106.728,143.631 106.728,141.803 101.712,141.803 101.712,138.707 106.878,138.707 106.878,136.879 99.768,136.879 		"/>
		<polygon id="XMLID_49_" fill="#F0B88A" points="131.673,149.766 138.783,149.766 138.783,147.937 133.617,147.937 
			133.617,143.631 138.633,143.631 138.633,141.803 133.617,141.803 133.617,138.707 138.783,138.707 138.783,136.879 
			131.673,136.879 		"/>
		<polygon id="XMLID_48_" fill="#F0B88A" points="145.339,136.879 143.396,136.879 143.396,149.766 149.128,149.766 
			149.128,147.937 145.339,147.937 		"/>
		<path id="XMLID_45_" fill="#F0B88A" d="M159.464,143.013c0.524-0.656,0.786-1.44,0.786-2.354c0-1.168-0.419-2.108-1.253-2.82
			c-0.757-0.64-1.985-0.96-3.688-0.96h-2.278v12.887h1.944v-5.274h0.35l3.683,5.274h2.377l-3.988-5.491
			C158.252,144.091,158.941,143.67,159.464,143.013z M154.975,142.796v-4.089h0.692c1.793,0,2.688,0.659,2.688,1.978
			c0,1.407-0.921,2.111-2.764,2.111H154.975z"/>
		<polygon id="XMLID_44_" fill="#F0B88A" points="168.39,142.027 165.442,136.879 163.206,136.879 167.412,144.198 167.412,149.766 
			169.357,149.766 169.357,144.198 173.579,136.879 171.345,136.879 		"/>
		<polygon id="XMLID_43_" fill="#F0B88A" points="122.339,145.492 119.21,136.879 118.746,136.879 115.479,145.492 112.124,136.879 
			110.012,136.879 115.25,150 115.711,150 118.942,141.452 122.045,150 122.501,150 128.016,136.879 125.903,136.879 		"/>
	</g>
	<g id="XMLID_35_">
		<path id="XMLID_36_" fill="#F0B88A" d="M99.559,31.65l31.651,31.65l31.65-31.65L131.21,0L99.559,31.65z M130.194,12.702v37.896
			c-4.769-0.194-9.224-2.143-12.618-5.538c-3.582-3.582-5.555-8.344-5.555-13.41s1.973-9.829,5.555-13.411
			C120.971,14.845,125.426,12.897,130.194,12.702z M120.424,13.656l9.77-9.77v6.923C126.707,10.938,123.37,11.92,120.424,13.656z
			 M130.194,52.492v6.922l-9.77-9.77C123.37,51.38,126.707,52.362,130.194,52.492z M132.225,52.47
			c3.82-0.222,7.445-1.47,10.557-3.612l-10.557,10.556V52.47z M132.225,3.886l10.557,10.556c-3.111-2.142-6.736-3.39-10.557-3.612
			V3.886z M112.993,21.088c-1.867,3.168-2.864,6.788-2.864,10.562s0.997,7.394,2.864,10.562L102.431,31.65L112.993,21.088z
			 M145.488,46.151l-1.091-1.091c-3.289,3.289-7.572,5.22-12.173,5.514V12.726c4.601,0.294,8.884,2.226,12.173,5.514l1.091-1.09
			l14.501,14.501L145.488,46.151z"/>
	</g>
</g>
</svg>
