<?xml version="1.0" encoding="utf-8"?>
<!-- Generator: Adobe Illustrator 16.0.0, SVG Export Plug-In . SVG Version: 6.00 Build 0)  -->
<!DOCTYPE svg PUBLIC "-//W3C//DTD SVG 1.1//EN" "http://www.w3.org/Graphics/SVG/1.1/DTD/svg11.dtd">
<svg version="1.1" id="Layer_1" xmlns="http://www.w3.org/2000/svg" xmlns:xlink="http://www.w3.org/1999/xlink" x="0px" y="0px"
	 width="192.442px" height="110px" viewBox="0 0 192.442 110" enable-background="new 0 0 192.442 110" xml:space="preserve">
<g id="XMLID_2_">
	<g id="XMLID_11_">
		<path id="XMLID_33_" fill="#353432" d="M23.338,66.945c0.123,0.117,0.316,0.118,0.437-0.002l2.651-2.655
			c0.124-0.124,0.124-0.325-0.003-0.447c-6.292-6.052-16.4-5.8-22.374,0.757C-1.35,70.521-1.35,79.717,4.048,85.642
			c5.974,6.557,16.083,6.81,22.375,0.758c0.126-0.12,0.126-0.323,0.003-0.447l-2.651-2.655c-0.121-0.12-0.314-0.119-0.438-0.002
			c-4.512,4.28-11.7,4.104-15.99-0.531c-3.966-4.282-3.965-11.006,0-15.288C11.639,62.842,18.826,62.665,23.338,66.945z"/>
		<path id="XMLID_30_" fill="#353432" d="M87.464,59.484c-8.627,0-15.622,7-15.622,15.636s6.994,15.636,15.622,15.636
			s15.622-7,15.622-15.636S96.091,59.484,87.464,59.484z M87.464,86.378c-6.212,0-11.248-5.04-11.248-11.258
			s5.036-11.258,11.248-11.258c6.211,0,11.248,5.04,11.248,11.258S93.675,86.378,87.464,86.378z"/>
		<path id="XMLID_29_" fill="#353432" d="M47.785,86.378H35.912c-0.172,0-0.312-0.14-0.312-0.312V59.797
			c0-0.173-0.14-0.312-0.312-0.312h-3.75c-0.173,0-0.312,0.14-0.312,0.312v30.646c0,0.172,0.14,0.312,0.312,0.312h16.246
			c0.173,0,0.313-0.141,0.313-0.312V86.69C48.098,86.518,47.958,86.378,47.785,86.378z"/>
		<path id="XMLID_26_" fill="#353432" d="M69.343,90.443V86.69c0-0.173-0.14-0.312-0.313-0.312H57.158
			c-0.172,0-0.312-0.14-0.312-0.312v-9.382c0-0.173,0.14-0.312,0.312-0.312h10.623c0.172,0,0.312-0.14,0.312-0.312v-3.753
			c0-0.173-0.14-0.312-0.312-0.312H57.158c-0.172,0-0.312-0.141-0.312-0.312v-7.506c0-0.173,0.14-0.312,0.312-0.312H69.03
			c0.173,0,0.313-0.14,0.313-0.312v-3.753c0-0.173-0.14-0.312-0.313-0.312H56.845h-4.061c-0.172,0-0.312,0.14-0.312,0.312v4.065
			v8.131v4.378v14.072c0,0.172,0.14,0.312,0.312,0.312H69.03C69.203,90.756,69.343,90.615,69.343,90.443z"/>
		<path id="XMLID_25_" fill="#353432" d="M108.764,90.756h14.998c0.173,0,0.312-0.141,0.312-0.312v-1.251
			c0-0.173-0.14-0.312-0.312-0.312H110.64c-0.174,0-0.313-0.14-0.313-0.312V59.797c0-0.173-0.14-0.312-0.312-0.312h-1.25
			c-0.172,0-0.312,0.14-0.312,0.312v30.646C108.452,90.615,108.592,90.756,108.764,90.756z"/>
		<path id="XMLID_22_" fill="#353432" d="M142.056,59.674c-0.049-0.115-0.163-0.189-0.288-0.189h-0.396
			c-0.124,0-0.237,0.074-0.287,0.189L128.008,90.32c-0.087,0.206,0.063,0.436,0.288,0.436h1.414c0.127,0,0.24-0.076,0.289-0.19
			l4.304-10.251c0.049-0.115,0.163-0.19,0.289-0.19h13.957c0.125,0,0.238,0.075,0.287,0.19l4.306,10.251
			c0.049,0.114,0.162,0.19,0.287,0.19h1.415c0.224,0,0.376-0.229,0.287-0.436L142.056,59.674z M135.172,78.247l6.397-15.231
			l6.399,15.231H135.172z"/>
		<path id="XMLID_21_" fill="#353432" d="M189.004,59.797c0-0.173-0.14-0.312-0.312-0.312h-0.476c-0.124,0-0.235,0.072-0.285,0.187
			l-12.231,27.701l-12.23-27.701c-0.051-0.114-0.163-0.187-0.287-0.187h-0.42c-0.173,0-0.313,0.14-0.313,0.312l-3.383,30.646
			c0,0.172,0.14,0.312,0.312,0.312h1.25c0.172,0,0.312-0.141,0.312-0.312l2.758-26.269l11.514,26.395
			c0.052,0.114,0.162,0.187,0.286,0.187h0.402c0.123,0,0.235-0.072,0.285-0.187l11.568-26.395l2.811,26.269
			c0,0.172,0.14,0.312,0.313,0.312h1.249c0.172,0,0.313-0.141,0.313-0.312L189.004,59.797z"/>
		<path id="XMLID_20_" fill="#353432" d="M67.958,106.488c0,0.804-0.086,1.364-0.256,1.688c-0.164,0.321-0.458,0.483-0.882,0.483
			c-0.302,0-0.626-0.116-0.974-0.351l-0.697,1.224c0.518,0.312,1.076,0.468,1.671,0.468c0.787,0,1.42-0.279,1.897-0.839
			c0.245-0.282,0.418-0.627,0.52-1.035c0.102-0.359,0.154-0.903,0.154-1.634v-6.115h-1.433V106.488z"/>
		<polygon id="XMLID_19_" fill="#353432" points="73.163,109.828 78.377,109.828 78.377,108.486 74.588,108.486 74.588,105.329 
			78.266,105.329 78.266,103.989 74.588,103.989 74.588,101.719 78.377,101.719 78.377,100.377 73.163,100.377 		"/>
		<polygon id="XMLID_18_" fill="#353432" points="96.56,109.828 101.774,109.828 101.774,108.486 97.986,108.486 97.986,105.329 
			101.664,105.329 101.664,103.989 97.986,103.989 97.986,101.719 101.774,101.719 101.774,100.377 96.56,100.377 		"/>
		<polygon id="XMLID_17_" fill="#353432" points="106.582,100.377 105.157,100.377 105.157,109.828 109.362,109.828 
			109.362,108.486 106.582,108.486 		"/>
		<path id="XMLID_14_" fill="#353432" d="M116.941,104.876c0.384-0.481,0.575-1.057,0.575-1.726c0-0.857-0.306-1.546-0.919-2.068
			c-0.556-0.469-1.455-0.705-2.704-0.705h-1.671v9.451h1.426v-3.867h0.256l2.7,3.867h1.745l-2.927-4.027
			C116.051,105.666,116.557,105.358,116.941,104.876z M113.648,104.717v-2.998h0.507c1.315,0,1.972,0.483,1.972,1.45
			c0,1.032-0.676,1.548-2.025,1.548H113.648z"/>
		<polygon id="XMLID_13_" fill="#353432" points="123.485,104.154 121.325,100.377 119.683,100.377 122.769,105.746 
			122.769,109.828 124.195,109.828 124.195,105.746 127.292,100.377 125.653,100.377 		"/>
		<polygon id="XMLID_12_" fill="#353432" points="89.715,106.695 87.421,100.377 87.08,100.377 84.685,106.695 82.224,100.377 
			80.675,100.377 84.517,110 84.854,110 87.224,103.731 89.5,110 89.834,110 93.877,100.377 92.329,100.377 		"/>
	</g>
	<g id="XMLID_3_">
		<path id="XMLID_4_" fill="#353432" d="M73.01,23.21l23.21,23.21l23.21-23.21L96.22,0L73.01,23.21z M95.475,9.315v27.791
			c-3.496-0.143-6.763-1.572-9.252-4.061c-2.627-2.627-4.074-6.12-4.074-9.834c0-3.715,1.447-7.208,4.074-9.834
			C88.712,10.887,91.979,9.458,95.475,9.315z M88.312,10.015l7.164-7.165v5.077C92.917,8.021,90.47,8.742,88.312,10.015z
			 M95.475,38.494v5.076l-7.164-7.165C90.47,37.679,92.917,38.399,95.475,38.494z M96.965,38.479
			c2.801-0.163,5.459-1.079,7.741-2.649l-7.741,7.741V38.479z M96.965,2.85l7.741,7.741c-2.282-1.571-4.94-2.486-7.741-2.649V2.85z
			 M82.861,15.464c-1.369,2.324-2.1,4.978-2.1,7.746c0,2.767,0.731,5.422,2.1,7.746l-7.746-7.746L82.861,15.464z M106.691,33.844
			l-0.801-0.799c-2.411,2.412-5.552,3.827-8.925,4.043V9.333c3.373,0.215,6.514,1.632,8.925,4.043l0.801-0.8l10.634,10.634
			L106.691,33.844z"/>
	</g>
</g>
</svg>
